<?xml version="1.0" encoding="UTF-8"?>
<svg id="Layer_1" xmlns="http://www.w3.org/2000/svg" version="1.1" viewBox="0 0 350 100">
  <!-- Generator: Adobe Illustrator 29.8.3, SVG Export Plug-In . SVG Version: 2.1.1 Build 3)  -->
  <defs>
    <style>
      .st0 {
        fill: #7bc269;
      }

      .st1 {
        fill: #707070;
      }
    </style>
  </defs>
  <path class="st0" d="M101.65,5.98c4.27-3.37,8.2-5.32,13.14-5.32,8.29,0,15.23,5.32,15.23,14.24v28.41h-11.13v-19.64c0-8.22-.75-13.46-7.53-13.46-3.1,0-5.77,1.41-7.53,3.99-2.26,3.37-2.18,7.12-2.18,11.43v17.69h-11.13V1.76h11.13v4.23Z"/>
  <path class="st0" d="M187.01,1.76h12.97l8.7,11.35,8.79-11.35h12.89l-15.23,19.64,17.07,21.91h-12.89l-10.63-13.62-10.46,13.62h-12.8l16.82-21.91-15.23-19.64Z"/>
  <path class="st0" d="M248.59,1.76h6.61v8.92h-6.61v32.63h-11.13V10.68h-5.69V1.76h5.69"/>
  <path class="st1" d="M101.65,98.14h-11.13v-51.8h11.13v14.79c4.02-3.76,8.62-5.63,13.98-5.63,11.46,0,21.01,8.92,21.01,21.91s-9.96,21.83-21.26,21.83c-5.61,0-9.71-1.88-13.72-5.48v4.38ZM101.15,77.25c0,7.51,5.36,12.44,12.22,12.44s12.05-5.24,12.05-12.37-4.69-12.29-12.05-12.29-12.22,4.93-12.22,12.21Z"/>
  <path class="st1" d="M197.3,45.96h11.13v10.62h6.61v8.92h-6.61v32.63h-11.13v-32.63h-5.69v-8.92h5.69v-10.62Z"/>
  <path class="st0" d="M159.61,9.74c-5.52,0-9.79-2.58-11.97-7.83h-10.68c2.23,9.17,10.38,16.67,22.48,16.67s20.51-6.68,22.92-16.67h-10.53c-1.51,4.85-6.28,7.83-12.22,7.83Z"/>
  <path class="st1" d="M159.72,90.2c5.52,0,9.79,2.58,11.97,7.83h10.68c-2.23-9.17-10.38-16.67-22.48-16.67s-20.51,6.68-22.92,16.67h10.53c1.51-4.85,6.28-7.83,12.22-7.83Z"/>
  <path class="st1" d="M159.58,76.1c9.37,0,15.65-3.37,20.42-10.94l-9.37-4.96c-3.1,3.37-6.28,4.86-11.05,4.86-6.35,0-11.36-4.1-12.46-11.45h-10.6c1.41,12.8,10.13,22.49,23.06,22.49Z"/>
  <path class="st0" d="M182.93,53.57c0-1.12.08-1.68.08-2.81,0-15.71-9.54-26.93-23.6-26.93s-23.1,12.53-23.1,26.09c0,1.26.07,2.49.21,3.69h10.6s0-.03,0-.05h35.82ZM159.58,34.4c5.94,0,10.71,3.55,12.22,9.35h-24.19c2.18-6.27,6.44-9.35,11.97-9.35Z"/>
  <g>
    <path class="st1" d="M235.08,98.02v-1.99h15.25s0-7.62,0-7.62h1.65v9.61s-16.9,0-16.9,0Z"/>
    <path class="st1" d="M235.08,79.17l16.9-7.2v1.65s-5.55,2.43-5.55,2.43v6.66s5.55,2.41,5.55,2.41v1.72s-16.9-7.3-16.9-7.3v-.37ZM238.66,79.36l6.12,2.66v-5.29s-6.12,2.62-6.12,2.62Z"/>
    <path class="st1" d="M251.98,70.57h-16.9v-4.2c0-4.17,1.74-6.07,4.12-6.07,1.48,0,2.75.83,3.55,2.54.8-2.76,2.26-4.17,4.38-4.17,2.52,0,4.85,2.29,4.85,6.46v5.44ZM242.17,68.58v-1.33c0-1.49-.16-2.65-.64-3.48-.49-.88-1.39-1.41-2.33-1.41-1.51,0-2.47,1.33-2.47,3.62v2.6s5.44,0,5.44,0ZM250.33,68.58v-2.4c0-.86-.12-1.71-.16-2.37-.09-1.33-1.32-3.06-3.01-3.06-1.11,0-2.14.72-2.71,1.93-.54,1.16-.64,2.71-.64,4.56v1.35s6.52,0,6.52,0Z"/>
    <path class="st1" d="M238.47,47.71c-1.2,1.08-2.07,2.02-2.07,3.64,0,1.71,1.04,2.68,2.14,2.68.92,0,1.88-.64,2.61-1.77,2.35-3.73,3.98-6.46,6.71-6.46,2.38,0,4.54,2.35,4.54,5.58,0,2.73-1.29,4.53-3.58,5.99l-.87-1.68c1.86-1.19,2.8-2.62,2.8-4.14,0-2.07-1.29-3.67-2.87-3.67-1.86,0-2.92,2.04-6.02,6.54-.64.94-1.98,1.68-3.25,1.68-2.33,0-3.95-2.13-3.95-4.8,0-2.43,1.25-3.89,2.75-5.19l1.06,1.6Z"/>
  </g>
</svg>
