<?xml version="1.0" encoding="UTF-8"?>
<svg id="Layer_1" xmlns="http://www.w3.org/2000/svg" version="1.1" viewBox="0 0 350 100">
  <!-- Generator: Adobe Illustrator 29.8.3, SVG Export Plug-In . SVG Version: 2.1.1 Build 3)  -->
  <defs>
    <style>
      .st0 {
        fill: #7bc269;
      }

      .st1 {
        fill: #707070;
      }
    </style>
  </defs>
  <g>
    <path class="st1" d="M98.54,86.84c2.24,0,4.02,1.13,4.79,3.13h-1.62c-.56-1.25-1.66-1.94-3.18-1.94-2.17,0-3.78,1.57-3.78,4.11s1.62,4.1,3.78,4.1c1.51,0,2.61-.7,3.18-1.93h1.62c-.77,1.99-2.55,3.1-4.79,3.1-2.89,0-5.17-2.17-5.17-5.27s2.27-5.3,5.17-5.3Z"/>
    <path class="st1" d="M118.05,97.42c-2.91,0-5.19-2.18-5.19-5.28s2.29-5.28,5.19-5.28,5.19,2.18,5.19,5.28-2.27,5.28-5.19,5.28ZM118.05,96.25c2.18,0,3.81-1.59,3.81-4.11s-1.63-4.11-3.81-4.11-3.81,1.57-3.81,4.11,1.63,4.11,3.81,4.11Z"/>
    <path class="st1" d="M141.17,86.95v10.36h-1.35l-5.43-8.24v8.24h-1.35v-10.36h1.35l5.43,8.22v-8.22h1.35Z"/>
    <path class="st1" d="M154.77,97.42c-2.08,0-3.55-1.16-3.58-2.86h1.44c.09.86.7,1.72,2.14,1.72,1.31,0,2.08-.74,2.08-1.72,0-2.79-5.6-1.01-5.6-4.85,0-1.71,1.38-2.86,3.43-2.86s3.27,1.08,3.43,2.66h-1.48c-.09-.7-.74-1.48-2-1.5-1.11-.03-1.99.55-1.99,1.66,0,2.67,5.58,1.01,5.58,4.84,0,1.47-1.2,2.92-3.44,2.92Z"/>
    <path class="st1" d="M168.19,86.97h1.35v6.55c0,1.9,1.02,2.72,2.55,2.72s2.54-.82,2.54-2.72v-6.55h1.35v6.53c0,2.69-1.77,3.92-3.9,3.92s-3.89-1.23-3.89-3.92v-6.53Z"/>
    <path class="st1" d="M187.61,86.97v9.25h3.62v1.1h-4.97v-10.35h1.35Z"/>
    <path class="st1" d="M200.05,86.97h7.01v1.1h-2.82v9.25h-1.35v-9.25h-2.83v-1.1Z"/>
    <path class="st1" d="M216.74,86.97h1.35v10.35h-1.35v-10.35Z"/>
    <path class="st1" d="M236.54,86.95v10.36h-1.35l-5.43-8.24v8.24h-1.35v-10.36h1.35l5.43,8.22v-8.22h1.35Z"/>
    <path class="st1" d="M256.31,89.97h-1.62c-.56-1.2-1.69-1.9-3.15-1.9-2.18,0-3.81,1.57-3.81,4.07s1.63,4.05,3.81,4.05c2.03,0,3.43-1.31,3.64-3.35h-4.13v-1.1h5.57v1.04c-.24,2.57-2.27,4.63-5.08,4.63s-5.19-2.17-5.19-5.27,2.29-5.28,5.19-5.28c2.18,0,3.99,1.13,4.76,3.12Z"/>
  </g>
  <g>
    <path class="st0" d="M142.83,26.27c-3.15-4.52-7.84-6.78-14.07-6.78-7.05,0-13.04,2.91-17.97,8.73v-6.88h-17.87v55.96h18.48v-32.24c0-3.15.82-5.77,2.46-7.85,1.64-2.09,4-3.13,7.08-3.13,5.13,0,7.7,3.12,7.7,9.34v33.88h18.38v-35.32c0-6.5-1.4-11.74-4.21-15.71Z"/>
    <polygon class="st1" points="233.88 60.77 233.88 23.32 214.26 23.32 214.26 77.3 257.07 77.3 257.07 60.77 233.88 60.77"/>
    <path class="st1" d="M203.28,28.7c-4.45-6.16-10.54-9.24-18.28-9.24-6.01,0-10.82,2.01-14.45,5.98v15.18c1.69-4.78,5.08-7.19,10.19-7.19,3.75,0,6.57,1.81,8.48,5.44,1.43,2.81,2.15,6.3,2.15,10.47s-.82,7.8-2.45,10.68c-1.98,3.42-4.94,5.13-8.89,5.13-3.68,0-6.47-1.78-8.38-5.34-.42-.78-.78-1.61-1.09-2.47v15.12c1.3,1.84,3.1,3.35,5.41,4.5,2.74,1.37,5.72,2.05,8.93,2.05,7.6,0,13.69-3.18,18.28-9.55,4.11-5.68,6.16-12.49,6.16-20.43s-2.02-14.79-6.06-20.33Z"/>
    <polygon class="st0" points="169.91 2.66 169.29 2.66 152.89 2.66 152.89 77.3 169.29 77.3 169.5 77.3 170.55 77.3 170.55 72.39 170.55 57.27 170.55 49.38 170.55 40.55 170.55 25.37 170.55 2.66 169.91 2.66"/>
  </g>
</svg>
